<mxfile host="app.diagrams.net" agent="Mozilla/5.0 (Windows NT 10.0; Win64; x64) AppleWebKit/537.36 (KHTML, like Gecko) Chrome/131.0.0.0 Safari/537.36" version="25.0.1">
  <diagram id="C5RBs43oDa-KdzZeNtuy" name="Page-1">
    <mxGraphModel dx="1050" dy="522" grid="1" gridSize="10" guides="1" tooltips="1" connect="1" arrows="1" fold="1" page="1" pageScale="1" pageWidth="827" pageHeight="1169" math="0" shadow="0">
      <root>
        <mxCell id="WIyWlLk6GJQsqaUBKTNV-0" />
        <mxCell id="WIyWlLk6GJQsqaUBKTNV-1" parent="WIyWlLk6GJQsqaUBKTNV-0" />
        <mxCell id="6SkO4zOz3KpEY4JWlvU3-2" value="" style="edgeStyle=orthogonalEdgeStyle;rounded=0;orthogonalLoop=1;jettySize=auto;html=1;" edge="1" parent="WIyWlLk6GJQsqaUBKTNV-1" source="6SkO4zOz3KpEY4JWlvU3-0" target="6SkO4zOz3KpEY4JWlvU3-1">
          <mxGeometry relative="1" as="geometry" />
        </mxCell>
        <mxCell id="6SkO4zOz3KpEY4JWlvU3-0" value="SENSORES" style="ellipse;whiteSpace=wrap;html=1;" vertex="1" parent="WIyWlLk6GJQsqaUBKTNV-1">
          <mxGeometry x="354" y="40" width="120" height="80" as="geometry" />
        </mxCell>
        <mxCell id="6SkO4zOz3KpEY4JWlvU3-5" value="" style="edgeStyle=orthogonalEdgeStyle;rounded=0;orthogonalLoop=1;jettySize=auto;html=1;" edge="1" parent="WIyWlLk6GJQsqaUBKTNV-1" source="6SkO4zOz3KpEY4JWlvU3-1" target="6SkO4zOz3KpEY4JWlvU3-4">
          <mxGeometry relative="1" as="geometry" />
        </mxCell>
        <mxCell id="6SkO4zOz3KpEY4JWlvU3-8" value="SEM WIFI" style="edgeLabel;html=1;align=center;verticalAlign=middle;resizable=0;points=[];" vertex="1" connectable="0" parent="6SkO4zOz3KpEY4JWlvU3-5">
          <mxGeometry x="-0.11" y="1" relative="1" as="geometry">
            <mxPoint as="offset" />
          </mxGeometry>
        </mxCell>
        <mxCell id="6SkO4zOz3KpEY4JWlvU3-7" value="" style="edgeStyle=orthogonalEdgeStyle;rounded=0;orthogonalLoop=1;jettySize=auto;html=1;" edge="1" parent="WIyWlLk6GJQsqaUBKTNV-1" source="6SkO4zOz3KpEY4JWlvU3-1" target="6SkO4zOz3KpEY4JWlvU3-6">
          <mxGeometry relative="1" as="geometry" />
        </mxCell>
        <mxCell id="6SkO4zOz3KpEY4JWlvU3-10" value="" style="edgeStyle=orthogonalEdgeStyle;rounded=0;orthogonalLoop=1;jettySize=auto;html=1;" edge="1" parent="WIyWlLk6GJQsqaUBKTNV-1" source="6SkO4zOz3KpEY4JWlvU3-1" target="6SkO4zOz3KpEY4JWlvU3-9">
          <mxGeometry relative="1" as="geometry" />
        </mxCell>
        <mxCell id="6SkO4zOz3KpEY4JWlvU3-12" value="SEM BROKER" style="edgeLabel;html=1;align=center;verticalAlign=middle;resizable=0;points=[];" vertex="1" connectable="0" parent="6SkO4zOz3KpEY4JWlvU3-10">
          <mxGeometry x="0.6449" y="2" relative="1" as="geometry">
            <mxPoint x="-2" y="3" as="offset" />
          </mxGeometry>
        </mxCell>
        <mxCell id="6SkO4zOz3KpEY4JWlvU3-1" value="MICROCONTROLADOR" style="ellipse;whiteSpace=wrap;html=1;" vertex="1" parent="WIyWlLk6GJQsqaUBKTNV-1">
          <mxGeometry x="336" y="160" width="156" height="100" as="geometry" />
        </mxCell>
        <mxCell id="6SkO4zOz3KpEY4JWlvU3-13" value="" style="edgeStyle=orthogonalEdgeStyle;rounded=0;orthogonalLoop=1;jettySize=auto;html=1;" edge="1" parent="WIyWlLk6GJQsqaUBKTNV-1" source="6SkO4zOz3KpEY4JWlvU3-4" target="6SkO4zOz3KpEY4JWlvU3-6">
          <mxGeometry relative="1" as="geometry" />
        </mxCell>
        <mxCell id="6SkO4zOz3KpEY4JWlvU3-4" value="GATEWAY LORAWAN" style="ellipse;whiteSpace=wrap;html=1;" vertex="1" parent="WIyWlLk6GJQsqaUBKTNV-1">
          <mxGeometry x="347" y="300" width="134" height="80" as="geometry" />
        </mxCell>
        <mxCell id="6SkO4zOz3KpEY4JWlvU3-15" value="" style="edgeStyle=orthogonalEdgeStyle;rounded=0;orthogonalLoop=1;jettySize=auto;html=1;" edge="1" parent="WIyWlLk6GJQsqaUBKTNV-1" source="6SkO4zOz3KpEY4JWlvU3-6" target="6SkO4zOz3KpEY4JWlvU3-14">
          <mxGeometry relative="1" as="geometry">
            <Array as="points">
              <mxPoint x="240" y="450" />
            </Array>
          </mxGeometry>
        </mxCell>
        <mxCell id="6SkO4zOz3KpEY4JWlvU3-6" value="BROKER MQTT" style="ellipse;whiteSpace=wrap;html=1;" vertex="1" parent="WIyWlLk6GJQsqaUBKTNV-1">
          <mxGeometry x="190" y="300" width="110" height="80" as="geometry" />
        </mxCell>
        <mxCell id="6SkO4zOz3KpEY4JWlvU3-16" style="edgeStyle=orthogonalEdgeStyle;rounded=0;orthogonalLoop=1;jettySize=auto;html=1;entryX=1;entryY=0.5;entryDx=0;entryDy=0;" edge="1" parent="WIyWlLk6GJQsqaUBKTNV-1" source="6SkO4zOz3KpEY4JWlvU3-9" target="6SkO4zOz3KpEY4JWlvU3-14">
          <mxGeometry relative="1" as="geometry">
            <mxPoint x="579" y="460" as="targetPoint" />
            <Array as="points">
              <mxPoint x="580" y="450" />
            </Array>
          </mxGeometry>
        </mxCell>
        <mxCell id="6SkO4zOz3KpEY4JWlvU3-9" value="API HTTP" style="ellipse;whiteSpace=wrap;html=1;" vertex="1" parent="WIyWlLk6GJQsqaUBKTNV-1">
          <mxGeometry x="540" y="310" width="78" height="60" as="geometry" />
        </mxCell>
        <mxCell id="6SkO4zOz3KpEY4JWlvU3-18" value="" style="edgeStyle=orthogonalEdgeStyle;rounded=0;orthogonalLoop=1;jettySize=auto;html=1;" edge="1" parent="WIyWlLk6GJQsqaUBKTNV-1" source="6SkO4zOz3KpEY4JWlvU3-14" target="6SkO4zOz3KpEY4JWlvU3-17">
          <mxGeometry relative="1" as="geometry" />
        </mxCell>
        <mxCell id="6SkO4zOz3KpEY4JWlvU3-14" value="BANCO DE DADOS" style="ellipse;whiteSpace=wrap;html=1;" vertex="1" parent="WIyWlLk6GJQsqaUBKTNV-1">
          <mxGeometry x="359" y="410" width="110" height="80" as="geometry" />
        </mxCell>
        <mxCell id="6SkO4zOz3KpEY4JWlvU3-17" value="DASHBOARD" style="ellipse;whiteSpace=wrap;html=1;" vertex="1" parent="WIyWlLk6GJQsqaUBKTNV-1">
          <mxGeometry x="359" y="520" width="110" height="80" as="geometry" />
        </mxCell>
      </root>
    </mxGraphModel>
  </diagram>
</mxfile>
